<svg width="648" height="648" viewBox="0 0 648 648" fill="none" xmlns="http://www.w3.org/2000/svg">
<rect x="585" y="648" width="588" height="588" rx="294" transform="rotate(-173.914 585 648)" fill="#FF0000" fill-opacity="0.38"/>
<path d="M577.652 474.339L322.32 322.413M322.32 322.413L70.3689 459.474M322.32 322.413L68.6127 188.26M322.32 322.413L323.042 37.3834M322.32 322.413L566.129 167.388M322.32 322.413L329.307 615.305" stroke="#888888" stroke-width="5"/>
<path d="M401.983 478.179C405.185 478.179 407.442 476.549 407.429 474.241C407.442 472.637 406.368 471.506 404.259 471.276L404.259 471.173C405.818 471.007 406.956 470.004 406.943 468.54C406.956 466.335 404.911 464.73 402.009 464.73C399.043 464.73 396.933 466.424 396.92 468.821L400.321 468.821C400.334 468.028 401.031 467.466 402.009 467.466C402.903 467.466 403.53 468.009 403.517 468.77C403.53 469.562 402.788 470.125 401.727 470.125L400.398 470.125L400.398 472.58L401.727 472.58C402.878 472.58 403.683 473.142 403.67 473.935C403.683 474.746 402.993 475.315 402.009 475.315C400.986 475.315 400.257 474.772 400.244 474.011L396.665 474.011C396.678 476.453 398.883 478.179 401.983 478.179Z" fill="black"/>
<path d="M426.287 163.909L423.014 163.909L419.793 165.878L419.793 168.895L422.656 167.182L422.733 167.182L422.733 177L426.287 177L426.287 163.909Z" fill="black"/>
<path d="M511.869 345L521.918 345L521.918 342.162L516.804 342.162L516.804 342.085L518.031 341.062C521.016 338.576 521.777 337.285 521.777 335.77C521.777 333.328 519.776 331.73 516.638 331.73C513.589 331.73 511.607 333.424 511.614 336.179L514.989 336.179C514.982 335.08 515.653 334.466 516.638 334.466C517.616 334.466 518.313 335.073 518.313 336.077C518.313 337.004 517.718 337.604 516.753 338.403L511.869 342.443L511.869 345Z" fill="black"/>
<path d="M234.741 476.955L241.108 476.955L241.108 479L244.509 479L244.509 476.955L246.017 476.955L246.017 474.193L244.509 474.193L244.509 465.909L240.009 465.909L234.741 474.193L234.741 476.955ZM241.185 474.193L238.244 474.193L238.244 474.091L241.082 469.591L241.185 469.591L241.185 474.193Z" fill="black"/>
<path d="M153.111 335.179C156.3 335.179 158.384 333.242 158.378 330.5C158.384 328.013 156.646 326.256 154.313 326.256C152.983 326.256 151.909 326.844 151.5 327.636L151.423 327.636L151.679 324.747L157.56 324.747L157.56 321.909L148.764 321.909L148.253 329.119L151.372 329.733C151.673 329.094 152.357 328.71 153.111 328.71C154.197 328.71 154.958 329.458 154.952 330.602C154.958 331.746 154.197 332.494 153.111 332.494C152.171 332.494 151.398 331.919 151.372 331.011L147.92 331.011C147.94 333.453 150.094 335.179 153.111 335.179Z" fill="black"/>
<path d="M247.341 179.179C250.435 179.179 252.595 177.319 252.582 174.5C252.595 172.103 250.991 170.358 248.619 170.358C247.124 170.358 245.768 171.074 245.27 172.276L245.193 172.276C245.206 170.16 245.871 168.747 247.366 168.747C248.114 168.747 248.766 169.08 248.926 169.821L252.429 169.821C252.205 167.584 250.256 165.73 247.366 165.73C243.934 165.73 241.678 168.364 241.665 172.608C241.652 177.364 244.286 179.179 247.341 179.179ZM247.315 176.494C246.28 176.494 245.513 175.708 245.5 174.628C245.513 173.548 246.28 172.761 247.315 172.761C248.376 172.761 249.143 173.548 249.131 174.628C249.143 175.708 248.376 176.494 247.315 176.494Z" fill="black"/>
</svg>
